<svg xmlns="http://www.w3.org/2000/svg" xmlns:xlink="http://www.w3.org/1999/xlink" viewBox="0 0 595.7 235.6" enable-background="new 0 0 595.7 235.6"><style type="text/css">.st0{clip-path:url(#SVGID_3_);fill:url(#SVGID_4_);} .st1{clip-path:url(#SVGID_7_);fill:url(#SVGID_8_);} .st2{clip-path:url(#SVGID_11_);fill:url(#SVGID_12_);} .st3{clip-path:url(#SVGID_15_);fill:url(#SVGID_16_);} .st4{clip-path:url(#SVGID_19_);fill:url(#SVGID_20_);} .st5{clip-path:url(#SVGID_22_);fill:url(#SVGID_23_);} .st6{fill-rule:evenodd;clip-rule:evenodd;fill:#EAEDF1;} .st7{fill-rule:evenodd;clip-rule:evenodd;fill:#FFFFFF;}</style><defs><path id="SVGID_1_" d="M305.6 112.9l11.6-33.1c.2-.7.6-.7.9 0l11.2 33c.2.7-.2 1.3-.9 1.3h-21.8c-.8.1-1.2-.5-1-1.2m-3.4-66.9c-.7 0-1.5.6-1.8 1.3l-41.4 113.8c-.3.7.1 1.3.9 1.3h30.1c.7 0 1.5-.6 1.7-1.3l5.5-18.9c.2-.7 1-1.3 1.7-1.3h37.1c.7 0 1.5.6 1.7 1.3l5.5 18.9c.2.7 1 1.3 1.7 1.3h31.5c.7 0 1.1-.6.9-1.3l-42-113.9c-.3-.7-1.1-1.3-1.8-1.3h-31.3z"/></defs><linearGradient id="SVGID_2_" gradientUnits="userSpaceOnUse" x1="255.462" y1="104.176" x2="380.243" y2="104.176"><stop offset="0" stop-color="#A4AFB9"/><stop offset="1" stop-color="#818D96"/></linearGradient><use xlink:href="#SVGID_1_" overflow="visible" fill="url(#SVGID_2_)"/><clipPath id="SVGID_3_"><use xlink:href="#SVGID_1_" overflow="visible"/></clipPath><linearGradient id="SVGID_4_" gradientUnits="userSpaceOnUse" x1="379.236" y1="-519.638" x2="380.236" y2="-519.638" gradientTransform="matrix(0 122.538 122.538 0 63993.266 -46427.977)"><stop offset="0" stop-color="#A4AFB9"/><stop offset="1" stop-color="#818D96"/></linearGradient><path class="st0" d="M258.7 46h118.8v116.4h-118.8z"/><defs><path id="SVGID_5_" d="M414.2 103.8c0-29.1 6.4-32.3 20.1-32.3 13.6 0 20.1 3.2 20.1 32.3 0 28.1-5.9 32.6-19.9 32.6-14.3 0-20.3-4.6-20.3-32.6m-31.2 0c0 40.7 16.3 59.6 51.3 59.6 35.8 0 51.1-17.8 51.1-59.6 0-41-15.8-59.3-51.1-59.3-35.4 0-51.3 18.3-51.3 59.3"/></defs><linearGradient id="SVGID_6_" gradientUnits="userSpaceOnUse" x1="381.495" y1="103.93" x2="487.08" y2="103.93"><stop offset="0" stop-color="#A4AFB9"/><stop offset="1" stop-color="#818D96"/></linearGradient><use xlink:href="#SVGID_5_" overflow="visible" fill="url(#SVGID_6_)"/><clipPath id="SVGID_7_"><use xlink:href="#SVGID_5_" overflow="visible"/></clipPath><linearGradient id="SVGID_8_" gradientUnits="userSpaceOnUse" x1="379.238" y1="-519.637" x2="380.238" y2="-519.637" gradientTransform="matrix(0 122.538 122.538 0 64109.52 -46428.348)"><stop offset="0" stop-color="#A4AFB9"/><stop offset="1" stop-color="#818D96"/></linearGradient><path class="st1" d="M383 44.5h102.4v118.9h-102.4z"/><defs><path id="SVGID_9_" d="M505.5 135.3c-.7 0-1.3.6-1.3 1.3v24.4c0 .7.6 1.3 1.3 1.3h88.9c.7 0 1.3-.6 1.3-1.3v-24.4c0-.7-.6-1.3-1.3-1.3h-88.9z"/></defs><linearGradient id="SVGID_10_" gradientUnits="userSpaceOnUse" x1="191.214" y1="148.796" x2="605.841" y2="148.796"><stop offset="0" stop-color="#A4AFB9"/><stop offset="1" stop-color="#818D96"/></linearGradient><use xlink:href="#SVGID_9_" overflow="visible" fill="url(#SVGID_10_)"/><clipPath id="SVGID_11_"><use xlink:href="#SVGID_9_" overflow="visible"/></clipPath><linearGradient id="SVGID_12_" gradientUnits="userSpaceOnUse" x1="379.238" y1="-519.639" x2="380.236" y2="-519.639" gradientTransform="matrix(0 122.535 122.535 0 64223.844 -46426.863)"><stop offset="0" stop-color="#A4AFB9"/><stop offset="1" stop-color="#818D96"/></linearGradient><path class="st2" d="M504.2 135.3h91.5v27h-91.5z"/><defs><path id="SVGID_13_" d="M505.5 46c-.7 0-1.3.6-1.3 1.3v24.4c0 .7.6 1.3 1.3 1.3h88.9c.7 0 1.3-.6 1.3-1.3v-24.4c0-.7-.6-1.3-1.3-1.3h-88.9z"/></defs><linearGradient id="SVGID_14_" gradientUnits="userSpaceOnUse" x1="493.255" y1="59.474" x2="907.883" y2="59.474"><stop offset="0" stop-color="#A4AFB9"/><stop offset="1" stop-color="#818D96"/></linearGradient><use xlink:href="#SVGID_13_" overflow="visible" fill="url(#SVGID_14_)"/><clipPath id="SVGID_15_"><use xlink:href="#SVGID_13_" overflow="visible"/></clipPath><linearGradient id="SVGID_16_" gradientUnits="userSpaceOnUse" x1="379.237" y1="-519.639" x2="380.235" y2="-519.639" gradientTransform="matrix(0 122.538 122.538 0 64225.66 -46428.379)"><stop offset="0" stop-color="#A4AFB9"/><stop offset="1" stop-color="#818D96"/></linearGradient><path class="st3" d="M504.2 46h91.5v27h-91.5z"/><defs><path id="SVGID_17_" d="M505.5 90.6c-.7 0-1.3.6-1.3 1.3v24.4c0 .7.6 1.3 1.3 1.3h88.9c.7 0 1.3-.6 1.3-1.3v-24.4c0-.7-.6-1.3-1.3-1.3h-88.9z"/></defs><linearGradient id="SVGID_18_" gradientUnits="userSpaceOnUse" x1="341.818" y1="104.135" x2="756.446" y2="104.135"><stop offset="0" stop-color="#A4AFB9"/><stop offset="1" stop-color="#818D96"/></linearGradient><use xlink:href="#SVGID_17_" overflow="visible" fill="url(#SVGID_18_)"/><clipPath id="SVGID_19_"><use xlink:href="#SVGID_17_" overflow="visible"/></clipPath><linearGradient id="SVGID_20_" gradientUnits="userSpaceOnUse" x1="379.236" y1="-519.639" x2="380.233" y2="-519.639" gradientTransform="matrix(0 122.537 122.537 0 64224.707 -46427.461)"><stop offset="0" stop-color="#A4AFB9"/><stop offset="1" stop-color="#818D96"/></linearGradient><path class="st4" d="M504.2 90.6h91.5v27h-91.5z"/><defs><path id="SVGID_21_" d="M110.5 191.1v-79.8c0-1.5-1.1-3.4-2.4-4.2l-69.8-40.6c-1.3-.8-1.2-1.9.1-2.5l69.6-30.1c1.4-.6 3.7-.6 5.1 0l69.1 30.2c1.4.6 2.4 2.3 2.2 3.9l-8.8 75.7c-.2 1.5-1.3 3.5-2.6 4.4l-60.4 44.1c-.4.3-.8.4-1.1.4-.6.1-1-.5-1-1.5m-2.5-190.7l-105.6 43.2c-1.4.6-2.4 2.3-2.2 3.8l16 112.8c.2 1.5 1.4 3.5 2.6 4.4l89.5 70c1.2.9 3.2.9 4.4 0l89.5-70c1.2-.9 2.4-2.9 2.6-4.4l16-112.8c.2-1.5-.8-3.2-2.2-3.8l-105.5-43.2c-.7-.3-1.6-.4-2.6-.4-.9 0-1.8.1-2.5.4"/></defs><clipPath id="SVGID_22_"><use xlink:href="#SVGID_21_" overflow="visible"/></clipPath><linearGradient id="SVGID_23_" gradientUnits="userSpaceOnUse" x1="379.286" y1="-519.666" x2="380.286" y2="-519.666" gradientTransform="matrix(0 121.701 121.701 0 63354.242 -46116.547)"><stop offset="0" stop-color="#A4AFB9"/><stop offset="1" stop-color="#818D96"/></linearGradient><path class="st5" d="M0 0h220.9v235.6h-220.9z"/><path class="st6" d="M112.8 107.2c-1.3.8-2.4 2.6-2.4 4.1v79.8c0 1.5 1 2 2.2 1.1l60.5-44.1c1.2-.9 2.3-2.8 2.5-4.3l8.8-75.7c.2-1.5-.7-2.1-2-1.3l-69.6 40.4z"/><path class="st7" d="M108.1 33.9c1.4-.6 3.7-.6 5.1 0l69.2 30.3c1.4.6 1.5 1.7.1 2.5l-69.7 40.5c-1.3.8-3.5.8-4.8 0l-69.7-40.6c-1.3-.8-1.2-1.9.1-2.5l69.7-30.2z"/></svg>